<svg width="155" height="155" viewBox="0 0 155 155" fill="none" xmlns="http://www.w3.org/2000/svg">
<path d="M12.9166 64.5833C17.9541 39.9383 36.6187 20.2146 60.747 13.4979C62.775 12.936 63.7825 12.6519 64.3314 13.2525C64.8804 13.8596 64.4735 14.8542 63.6727 16.8562L58.125 29.0625M90.4166 12.9167C115.062 17.9542 134.785 36.6187 141.502 60.7471C142.064 62.775 142.348 63.7825 141.747 64.3315C141.14 64.8804 140.146 64.4735 138.144 63.6727L125.937 58.125M142.083 90.4167C137.046 115.062 118.381 134.785 94.2529 141.502C92.225 142.064 91.2175 142.348 90.6685 141.748C90.1195 141.14 90.5264 140.146 91.3273 138.144L96.875 125.938M64.5833 142.083C39.9383 137.046 20.2145 118.381 13.4979 94.2529C12.936 92.225 12.6518 91.2175 13.2525 90.6685C13.8595 90.1196 14.8541 90.5265 16.8562 91.3273L29.0625 96.875" stroke="#28572A" stroke-width="1.5" stroke-linecap="round"/>
<path d="M55.6256 75.3365L78.2233 46.3256C79.9929 44.0587 83.306 45.4731 83.306 48.4956V70.9448C83.306 72.7531 84.5977 74.2256 86.2058 74.2256H97.1979C99.6908 74.2256 101.021 77.5452 99.3744 79.6635L76.7767 108.674C75.0071 110.941 71.6939 109.527 71.6939 106.504V84.0552C71.6939 82.2469 70.4023 80.7744 68.7942 80.7744H57.8021C55.3092 80.7744 53.9723 77.4548 55.6256 75.3365Z" stroke="#2E6E65" stroke-width="1.5" stroke-linecap="round" stroke-linejoin="round"/>
</svg>
