<svg width="121" height="134" viewBox="0 0 121 134" fill="none" xmlns="http://www.w3.org/2000/svg">
<path fill-rule="evenodd" clip-rule="evenodd" d="M36.2812 30.663V24.1427C36.2812 17.7538 38.8328 11.6265 43.3747 7.10881C47.9166 2.59114 54.0768 0.0531311 60.5 0.0531311C66.9232 0.0531311 73.0833 2.59114 77.6252 7.10881C82.1671 11.6265 84.7187 17.7538 84.7187 24.1427V30.663C93.0306 30.9135 98.1198 31.8 102.001 35.0055C107.381 39.4509 108.802 46.9668 111.637 62.0052L116.481 87.7007C120.466 108.848 122.455 119.422 116.649 126.385C110.836 133.349 100.019 133.349 78.3896 133.349H42.6104C20.975 133.349 10.1637 133.349 4.35123 126.385C-1.46127 119.422 0.540812 108.848 4.51915 87.7007L9.36289 62.0052C12.2046 46.9733 13.6189 39.4509 18.9987 35.0055C22.8802 31.8 27.9694 30.9135 36.2812 30.663ZM45.9687 24.1427C45.9687 20.3094 47.4997 16.633 50.2248 13.9224C52.95 11.2118 56.6461 9.68897 60.5 9.68897C64.3539 9.68897 68.05 11.2118 70.7751 13.9224C73.5003 16.633 75.0312 20.3094 75.0312 24.1427V30.5666H45.9687V24.1427Z" fill="#28572A"/>
</svg>
