<svg width="140" height="137" viewBox="0 0 140 137" fill="none" xmlns="http://www.w3.org/2000/svg">
<path d="M110.485 96.0771C103.066 95.9049 96.666 93.5024 91.284 88.8696C85.9021 84.2368 82.6643 78.026 81.5707 70.2373H61.989L58.0882 63.779H81.5707C81.9453 60.3345 83.1487 56.7286 85.1809 52.9613C87.2131 49.1939 89.9342 46.2597 93.3442 44.1585H46.8313L42.924 37.7002H96.1601L85.9559 9.755C85.6201 8.92403 85.1206 8.2825 84.4576 7.83042C83.7945 7.37403 83.0496 7.14583 82.223 7.14583H64.5401V0.6875H82.223C84.4791 0.6875 86.4726 1.30965 88.2034 2.55396C89.9385 3.79826 91.1957 5.44944 91.9751 7.5075L103.051 37.7002H110.491C118.762 37.7002 125.672 40.5182 131.222 46.1542C136.777 51.7858 139.554 58.7393 139.554 67.0146C139.554 75.0531 136.721 81.9053 131.054 87.5715C125.388 93.2376 118.534 96.0706 110.491 96.0706M110.51 89.6123C116.792 89.6123 122.127 87.4165 126.514 83.0248C130.906 78.6245 133.102 73.2856 133.102 67.0081C133.102 60.5498 130.949 55.1269 126.643 50.7396C122.338 46.3522 116.956 44.1564 110.498 44.1521C109.473 44.1521 108.541 44.2382 107.701 44.4104C106.862 44.574 106.097 44.7376 105.408 44.9012L112.08 62.7973L106.022 65.0512L99.6346 47.2263C95.9921 49.1379 93.1246 51.9645 91.0321 55.706C88.9396 59.4476 87.8912 63.2149 87.8869 67.0081C87.8869 73.2899 90.0871 78.6288 94.4874 83.0248C98.8833 87.4165 104.229 89.6123 110.51 89.6123ZM42.1942 136.571C37.7121 136.571 33.8974 134.999 30.7501 131.856C27.607 128.717 26.0355 124.907 26.0355 120.425C26.0355 119.758 26.0742 119.176 26.1517 118.681C26.2378 118.186 26.3627 117.607 26.5263 116.944H0.202137V110.486H29.4326C30.961 108.621 32.8382 107.121 35.0642 105.984C37.2945 104.848 39.6755 104.279 42.2071 104.279C44.4676 104.279 46.7129 104.753 48.9432 105.7C51.1692 106.656 53.1669 108.251 54.9365 110.486H70.5011C71.6593 110.486 72.6108 110.113 73.3557 109.368C74.1005 108.623 74.473 107.672 74.473 106.514V98.3117C74.473 97.1535 74.1005 96.2019 73.3557 95.4571C72.6108 94.7122 71.6571 94.3376 70.4946 94.3333H0.195679V87.875H13.1123V65.2708H0.195679V58.8125H40.3148L57.2034 87.875H70.4946C73.3621 87.875 75.8163 88.8976 77.8571 90.9427C79.898 92.9878 80.9205 95.442 80.9249 98.3052V106.507C80.9249 109.375 79.9044 111.829 77.8636 113.87C75.8228 115.911 73.3664 116.933 70.4946 116.938H57.8234C57.9913 117.601 58.1162 118.182 58.198 118.681C58.2841 119.172 58.3271 119.749 58.3271 120.412C58.3271 124.898 56.7556 128.711 53.6126 131.85C50.4781 134.993 46.672 136.564 42.1942 136.564M19.5707 87.875H49.7634L36.7757 65.2708H19.5707V87.875ZM42.1748 130.106C44.8357 130.106 47.1155 129.155 49.0142 127.251C50.913 125.353 51.8623 123.073 51.8623 120.412C51.8623 117.751 50.913 115.474 49.0142 113.579C47.1155 111.685 44.8357 110.733 42.1748 110.725C39.514 110.716 37.2364 111.668 35.3419 113.579C33.4475 115.491 32.496 117.768 32.4873 120.412C32.4787 123.056 33.4303 125.335 35.3419 127.251C37.2536 129.167 39.5312 130.123 42.1748 130.106Z" fill="white"/>
</svg>
