<svg width="133" height="133" viewBox="0 0 133 133" fill="none" xmlns="http://www.w3.org/2000/svg">
<path fill-rule="evenodd" clip-rule="evenodd" d="M80.4823 8.31669C74.2693 -2.39194 58.7306 -2.39194 52.5177 8.31669L43.4954 23.8625C42.231 26.0745 41.8976 28.6941 42.5678 31.1498C43.2381 33.6054 44.8576 35.6976 47.073 36.9699C49.2884 38.2422 51.9198 38.5912 54.393 37.9408C56.8662 37.2905 58.9804 35.6935 60.2741 33.4984L66.5 22.7705L80.8375 47.4768C78.5746 47.6908 76.4594 48.6896 74.8622 50.2983C73.2649 51.907 72.2872 54.0231 72.1001 56.2764C71.9131 58.5297 72.5286 60.7767 73.839 62.6241C75.1494 64.4716 77.0712 65.8019 79.2681 66.3823L97.9843 71.3672C99.3878 71.7513 100.861 71.8115 102.291 71.5432C103.722 71.2749 105.072 70.6852 106.238 69.8191C108.008 68.5214 109.261 66.7356 109.855 64.5515L114.866 45.9414C115.456 43.7599 115.256 41.4417 114.301 39.3918C113.347 37.342 111.699 35.6908 109.645 34.7268C107.591 33.7627 105.262 33.547 103.065 34.1174C100.867 34.6878 98.941 36.008 97.6227 37.8473L80.4823 8.31669ZM2.18142 95.0393L19.3154 65.5151C17.0525 65.301 14.9374 64.3022 13.3401 62.6935C11.7428 61.0849 10.7651 58.9687 10.5781 56.7154C10.391 54.4621 11.0065 52.2152 12.3169 50.3677C13.6273 48.5202 15.5491 47.1899 17.746 46.6095L36.4622 41.6246C38.9431 40.9686 41.5842 41.3167 43.8076 42.5928C46.0311 43.869 47.6558 45.9692 48.3262 48.4339L53.3443 67.0568C53.9337 69.2384 53.7337 71.5566 52.7793 73.6064C51.825 75.6562 50.1769 77.3074 48.1231 78.2715C46.0692 79.2355 43.7401 79.4512 41.5426 78.8808C39.3451 78.3105 37.419 76.9903 36.1006 75.1509L21.7566 99.8572H34.2083C36.7776 99.8572 39.2416 100.872 41.0584 102.679C42.8751 104.487 43.8958 106.937 43.8958 109.493C43.8958 112.049 42.8751 114.5 41.0584 116.307C39.2416 118.114 36.7776 119.129 34.2083 119.129H16.1637C3.73142 119.129 -4.0315 105.748 2.18142 95.0393ZM121.796 79.4934C120.502 77.2983 118.388 75.7013 115.915 75.051C113.442 74.4006 110.811 74.7496 108.595 76.0219C106.38 77.2942 104.76 79.3864 104.09 81.842C103.42 84.2977 103.753 86.9173 105.017 89.1293L111.243 99.8572H82.5683C83.5127 97.8011 83.7003 95.4802 83.0983 93.3004C82.4962 91.1207 81.1429 89.2208 79.275 87.9332C77.4071 86.6455 75.1435 86.0521 72.8802 86.2567C70.6169 86.4612 68.4979 87.4508 66.8939 89.0522L53.241 102.632C51.4585 104.38 50.3541 106.808 50.3541 109.493C50.3541 112.14 51.3875 114.542 53.241 116.36L66.8939 129.934C68.4989 131.531 70.6167 132.516 72.8776 132.718C75.1386 132.921 77.3991 132.327 79.2646 131.04C81.1302 129.753 82.4823 127.856 83.0849 125.679C83.6875 123.502 83.5024 121.184 82.5618 119.129H116.836C129.269 119.129 137.038 105.748 130.818 95.0393L121.796 79.4934Z" fill="#28572A"/>
</svg>
