<svg width="40" height="28" viewBox="0 0 40 28" fill="none" xmlns="http://www.w3.org/2000/svg">
<path d="M37.645 12.3344C38.215 13.1331 38.5 13.5344 38.5 14.125C38.5 14.7175 38.215 15.1169 37.645 15.9156C35.0838 19.5081 28.5419 27.25 19.75 27.25C10.9562 27.25 4.41625 19.5062 1.855 15.9156C1.285 15.1169 1 14.7156 1 14.125C1 13.5325 1.285 13.1331 1.855 12.3344C4.41625 8.74188 10.9581 1 19.75 1C28.5438 1 35.0838 8.74375 37.645 12.3344Z" stroke="#2E6E65" stroke-width="1.5"/>
<path d="M25.375 14.125C25.375 12.6332 24.7824 11.2024 23.7275 10.1475C22.6726 9.09263 21.2418 8.5 19.75 8.5C18.2582 8.5 16.8274 9.09263 15.7725 10.1475C14.7176 11.2024 14.125 12.6332 14.125 14.125C14.125 15.6168 14.7176 17.0476 15.7725 18.1025C16.8274 19.1574 18.2582 19.75 19.75 19.75C21.2418 19.75 22.6726 19.1574 23.7275 18.1025C24.7824 17.0476 25.375 15.6168 25.375 14.125Z" stroke="#2E6E65" stroke-width="1.5"/>
</svg>
